<?xml version="1.0" standalone="no"?>
<!DOCTYPE svg PUBLIC "-//W3C//DTD SVG 20010904//EN"
 "http://www.w3.org/TR/2001/REC-SVG-20010904/DTD/svg10.dtd">
<svg version="1.0" xmlns="http://www.w3.org/2000/svg"
 width="756.000000pt" height="90.000000pt" viewBox="0 0 756.000000 90.000000"
 preserveAspectRatio="xMidYMid meet">

<g transform="translate(0.000000,90.000000) scale(0.100000,-0.100000)"
fill="#000000" stroke="none">
<path d="M1346 889 c-138 -21 -261 -110 -322 -234 -67 -135 -69 -275 -5 -410
40 -86 104 -148 199 -193 76 -37 78 -37 207 -37 125 0 133 1 195 31 182 87
279 272 249 479 -18 128 -95 251 -192 309 -85 49 -221 72 -331 55z m190 -58
c139 -60 223 -236 211 -446 -6 -107 -24 -163 -75 -230 -56 -74 -132 -110 -231
-110 -63 0 -86 5 -133 28 -131 64 -207 216 -208 413 0 230 133 382 325 370 33
-2 83 -13 111 -25z"/>
<path d="M26 863 c-3 -6 10 -14 29 -17 65 -13 65 -12 65 -396 0 -389 1 -383
-70 -395 -23 -4 -39 -12 -37 -18 5 -15 337 -16 337 -1 0 6 -20 15 -45 18 -71
11 -75 23 -75 213 l0 163 26 6 c15 4 67 4 117 0 101 -7 121 -18 131 -72 4 -20
13 -34 21 -34 12 0 15 22 15 125 0 99 -3 125 -14 125 -7 0 -16 -14 -20 -32
-12 -62 -26 -68 -156 -68 l-117 0 -7 31 c-10 51 -7 289 4 310 9 17 22 19 104
19 51 0 108 -3 125 -6 40 -8 87 -54 96 -94 4 -16 13 -30 21 -30 15 0 18 45 8
121 l-6 44 -274 0 c-197 0 -275 -3 -278 -12z"/>
<path d="M2333 873 c-72 -4 -88 -27 -28 -39 20 -3 40 -15 45 -25 16 -28 13
-688 -3 -719 -9 -18 -25 -28 -55 -34 -23 -5 -42 -14 -42 -21 0 -9 42 -12 160
-12 118 1 160 4 160 13 0 6 -15 15 -34 18 -62 12 -71 32 -75 177 -4 175 -3
179 57 179 28 0 57 -7 71 -16 13 -9 57 -68 97 -131 124 -191 183 -240 295
-250 88 -8 104 3 43 31 -29 14 -71 47 -103 82 -58 63 -197 267 -203 297 -2 13
14 29 51 55 72 48 101 103 101 186 0 114 -70 185 -200 206 -61 9 -198 11 -337
3z m298 -44 c82 -28 136 -118 126 -213 -7 -67 -27 -108 -69 -138 -27 -19 -48
-24 -122 -27 -67 -2 -91 0 -97 10 -12 20 -11 336 1 360 9 15 22 19 69 19 32 0
73 -5 92 -11z"/>
<path d="M3360 863 c0 -6 13 -14 29 -18 64 -14 63 -8 62 -392 -2 -395 0 -387
-76 -398 -25 -4 -45 -12 -45 -19 0 -8 88 -11 322 -11 l322 0 27 85 c19 57 24
88 17 95 -6 7 -14 3 -24 -10 -76 -107 -80 -110 -129 -123 -56 -15 -212 -10
-258 7 -41 16 -48 48 -45 215 l3 151 95 3 c116 3 140 -7 158 -66 8 -23 20 -42
27 -42 10 0 13 29 13 125 0 98 -3 125 -14 125 -7 0 -18 -18 -24 -40 -6 -22
-20 -44 -30 -50 -12 -6 -64 -9 -122 -8 l-103 3 0 170 0 170 125 0 c151 0 178
-11 206 -80 11 -25 25 -45 32 -45 14 0 15 21 6 106 l-6 59 -284 0 c-210 0
-284 -3 -284 -12z"/>
<path d="M4280 864 c0 -6 15 -15 33 -18 36 -7 66 -34 90 -81 23 -46 252 -611
278 -687 15 -44 29 -68 39 -68 10 0 29 36 54 103 57 150 200 476 263 600 56
109 83 137 133 137 11 0 20 6 20 13 0 9 -33 12 -130 12 -137 0 -166 -11 -89
-34 36 -11 40 -15 35 -37 -4 -13 -49 -127 -102 -252 -52 -125 -107 -255 -121
-289 -15 -35 -29 -63 -33 -63 -3 0 -11 12 -17 27 -6 16 -50 125 -98 243 -99
244 -137 349 -129 361 2 4 20 11 39 15 19 3 35 12 35 18 0 10 -38 13 -150 12
-109 0 -150 -3 -150 -12z"/>
<path d="M5486 863 c-3 -6 10 -14 29 -17 65 -13 65 -12 65 -396 0 -393 2 -384
-75 -396 -25 -3 -45 -11 -45 -18 0 -8 88 -11 320 -11 l320 0 20 53 c29 77 36
132 17 132 -8 0 -20 -12 -26 -27 -6 -16 -26 -45 -44 -66 -26 -30 -42 -39 -86
-47 -70 -13 -164 -11 -221 3 -62 17 -72 40 -78 202 -7 181 -9 178 123 173 116
-3 132 -11 144 -69 4 -19 14 -35 22 -37 13 -2 15 15 15 123 0 108 -2 125 -15
123 -8 -2 -18 -19 -22 -38 -11 -54 -30 -61 -149 -58 l-105 3 0 170 0 170 127
0 c146 0 168 -9 203 -83 37 -79 55 -41 37 77 l-7 43 -282 2 c-205 1 -284 -2
-287 -11z"/>
<path d="M6563 873 c-71 -4 -87 -26 -29 -37 61 -12 60 -4 57 -384 -3 -389 -2
-387 -70 -398 -25 -4 -38 -11 -35 -18 7 -18 314 -18 314 0 0 7 -16 16 -36 20
-59 11 -65 31 -62 200 l3 149 29 3 c16 2 45 1 63 -3 31 -6 43 -20 118 -134
139 -214 180 -248 310 -258 82 -6 101 7 39 27 -21 7 -62 38 -96 73 -63 64
-218 289 -218 316 0 9 16 25 36 36 51 27 100 88 113 142 29 115 -31 218 -148
254 -38 12 -282 19 -388 12z m346 -66 c60 -40 84 -98 79 -188 -4 -73 -20 -104
-72 -143 -22 -17 -46 -22 -122 -24 l-94 -4 0 189 c0 104 3 193 8 197 4 4 41 6
83 4 63 -2 83 -8 118 -31z"/>
<path d="M7339 865 c-39 -21 -62 -63 -62 -113 0 -103 126 -168 214 -109 77 51
87 143 22 204 -31 29 -40 33 -91 33 -31 -1 -69 -7 -83 -15z m151 -23 c53 -40
56 -121 5 -172 -21 -21 -35 -25 -81 -25 -50 0 -58 3 -85 33 -22 25 -29 42 -29
75 1 96 110 148 190 89z"/>
<path d="M7373 823 c-16 -6 -18 -143 -3 -143 6 0 10 14 10 31 0 27 3 30 27 27
19 -2 29 -10 33 -27 6 -28 30 -41 30 -16 0 9 -5 26 -11 37 -8 14 -8 23 0 31
37 37 -29 83 -86 60z m70 -25 c8 -24 -5 -38 -34 -38 -24 0 -29 4 -29 25 0 21
5 25 29 25 16 0 31 -6 34 -12z"/>
</g>
</svg>
